<?xml version="1.0" encoding="UTF-8" standalone="no"?>
<!DOCTYPE svg PUBLIC "-//W3C//DTD SVG 1.1//EN"
 "http://www.w3.org/Graphics/SVG/1.1/DTD/svg11.dtd">
<!-- Generated by graphviz version 2.43.0 (0)
 -->
<!-- Title: math Pages: 1 -->
<svg width="2156pt" height="1557pt"
 viewBox="0.00 0.00 2156.00 1556.87" xmlns="http://www.w3.org/2000/svg" xmlns:xlink="http://www.w3.org/1999/xlink">
<g id="graph0" class="graph" transform="scale(1 1) rotate(0) translate(4 1552.87)">
<title>math</title>
<polygon fill="white" stroke="transparent" points="-4,4 -4,-1552.87 2152,-1552.87 2152,4 -4,4"/>
<text text-anchor="start" x="830" y="-11" font-family="Ubuntu" font-weight="bold" text-decoration="underline" font-size="20.00">Programme de mathématique en seconde générale</text>
<g id="clust1" class="cluster">
<title>cluster_nombres_et_calculs</title>
<polygon fill="lightgrey" stroke="black" points="8,-422.84 8,-940.98 460,-940.98 460,-422.84 8,-422.84"/>
<text text-anchor="start" x="148" y="-921.98" font-family="Ubuntu" text-decoration="underline" font-size="20.00">Nombres et calculs</text>
</g>
<g id="clust2" class="cluster">
<title>cluster_geometrie</title>
<polygon fill="lightgrey" stroke="black" points="790,-604.02 790,-1535.32 1048,-1535.32 1048,-604.02 790,-604.02"/>
<text text-anchor="start" x="870" y="-1516.32" font-family="Ubuntu" text-decoration="underline" font-size="20.00">Géométrie</text>
</g>
<g id="clust3" class="cluster">
<title>cluster_fonctions</title>
<polygon fill="lightgrey" stroke="black" points="468,-187.47 468,-571.85 1301,-571.85 1301,-187.47 468,-187.47"/>
<text text-anchor="start" x="840" y="-552.85" font-family="Ubuntu" text-decoration="underline" font-size="20.00">Fonctions</text>
</g>
<g id="clust5" class="cluster">
<title>cluster_statistiques_et_proba</title>
<polygon fill="lightgrey" stroke="black" points="1367,-43.55 1367,-380.51 2140,-380.51 2140,-43.55 1367,-43.55"/>
<text text-anchor="start" x="1630" y="-361.51" font-family="Ubuntu" text-decoration="underline" font-size="20.00">Statistiques et probabilités</text>
</g>
<g id="clust6" class="cluster">
<title>cluster_algorithmique_et_programmation</title>
<polygon fill="lightgrey" stroke="black" points="1309,-422.84 1309,-1149.25 1917,-1149.25 1917,-422.84 1309,-422.84"/>
<text text-anchor="start" x="1473" y="-1130.25" font-family="Ubuntu" text-decoration="underline" font-size="20.00">Algorithmie et Programmation</text>
</g>
<g id="clust8" class="cluster">
<title>cluster_vocabulaire_ensembliste_logique</title>
<polygon fill="lightgrey" stroke="black" points="34,-973.15 34,-1166.19 647,-1166.19 647,-973.15 34,-973.15"/>
<text text-anchor="start" x="181" y="-1147.19" font-family="Ubuntu" text-decoration="underline" font-size="20.00">Vocabulaire ensembliste et logique</text>
</g>
<!-- manipuler_reels -->
<g id="node1" class="node">
<title>manipuler_reels</title>
<polygon fill="none" stroke="orange" points="452,-676.55 204,-676.55 204,-640.55 452,-640.55 452,-676.55"/>
<text text-anchor="middle" x="328" y="-654.15" font-family="Ubuntu" font-size="18.00">Manipuler les nombres réels</text>
</g>
<!-- intervalle -->
<g id="node2" class="node">
<title>intervalle</title>
<polygon fill="none" stroke="red" points="433.5,-484.55 330.5,-484.55 330.5,-448.55 433.5,-448.55 433.5,-484.55"/>
<text text-anchor="middle" x="382" y="-462.15" font-family="Ubuntu" font-size="18.00">Intervalles</text>
</g>
<!-- manipuler_reels&#45;&gt;intervalle -->
<g id="edge2" class="edge">
<title>manipuler_reels&#45;&gt;intervalle</title>
<path fill="none" stroke="black" d="M332.89,-640.35C342.33,-607.14 363.12,-533.98 374.39,-494.34"/>
<polygon fill="black" stroke="black" points="377.8,-495.14 377.16,-484.57 371.06,-493.23 377.8,-495.14"/>
</g>
<!-- var_fonction -->
<g id="node12" class="node">
<title>var_fonction</title>
<polygon fill="none" stroke="red" points="1044.5,-282.55 761.5,-282.55 761.5,-234.55 1044.5,-234.55 1044.5,-282.55"/>
<text text-anchor="middle" x="903" y="-264.15" font-family="Ubuntu" font-size="18.00">Étudier les variations </text>
<text text-anchor="middle" x="903" y="-244.15" font-family="Ubuntu" font-size="18.00">et les extremums d&#39;une fonction</text>
</g>
<!-- intervalle&#45;&gt;var_fonction -->
<g id="edge19" class="edge">
<title>intervalle&#45;&gt;var_fonction</title>
<path fill="none" stroke="black" d="M433.13,-448.52C505.03,-424.2 639.8,-377.28 752,-330.55 783.95,-317.24 818.98,-300.88 847.24,-287.23"/>
<polygon fill="black" stroke="black" points="849.08,-290.22 856.55,-282.71 846.03,-283.92 849.08,-290.22"/>
</g>
<!-- arithmetique -->
<g id="node3" class="node">
<title>arithmetique</title>
<polygon fill="none" stroke="red" points="216,-853.55 16,-853.55 16,-785.55 216,-785.55 216,-853.55"/>
<text text-anchor="middle" x="116" y="-835.15" font-family="Ubuntu" font-size="18.00">Notions de multiples,</text>
<text text-anchor="middle" x="116" y="-815.15" font-family="Ubuntu" font-size="18.00">diviseur</text>
<text text-anchor="middle" x="116" y="-795.15" font-family="Ubuntu" font-size="18.00"> et de nombre premier</text>
</g>
<!-- arithmetique&#45;&gt;manipuler_reels -->
<g id="edge1" class="edge">
<title>arithmetique&#45;&gt;manipuler_reels</title>
<path fill="none" stroke="black" d="M160.18,-785.41C201.08,-754.74 260.84,-709.92 296.91,-682.86"/>
<polygon fill="black" stroke="black" points="299.21,-685.51 305.11,-676.71 295.01,-679.91 299.21,-685.51"/>
</g>
<!-- calcul_literral -->
<g id="node4" class="node">
<title>calcul_literral</title>
<polygon fill="none" stroke="green" points="452,-843.55 234,-843.55 234,-795.55 452,-795.55 452,-843.55"/>
<text text-anchor="middle" x="343" y="-825.15" font-family="Ubuntu" font-size="18.00">Utiliser le calcul littéral </text>
<text text-anchor="middle" x="343" y="-805.15" font-family="Ubuntu" font-size="18.00">(identités remarquables)</text>
</g>
<!-- droites -->
<g id="node9" class="node">
<title>droites</title>
<polygon fill="none" stroke="red" points="1040,-682.55 798,-682.55 798,-634.55 1040,-634.55 1040,-682.55"/>
<text text-anchor="middle" x="919" y="-664.15" font-family="Ubuntu" font-size="18.00">Représenter et caractériser </text>
<text text-anchor="middle" x="919" y="-644.15" font-family="Ubuntu" font-size="18.00">les droites du plan</text>
</g>
<!-- calcul_literral&#45;&gt;droites -->
<g id="edge27" class="edge">
<title>calcul_literral&#45;&gt;droites</title>
<path fill="none" stroke="black" d="M452.29,-805.88C543,-793.24 674.41,-769.99 784,-731.05 815.3,-719.92 848.28,-702.57 873.81,-687.75"/>
<polygon fill="black" stroke="black" points="875.67,-690.71 882.52,-682.62 872.12,-684.68 875.67,-690.71"/>
</g>
<!-- calcul_literral&#45;&gt;var_fonction -->
<g id="edge28" class="edge">
<title>calcul_literral&#45;&gt;var_fonction</title>
<path fill="none" stroke="black" d="M390.01,-795.48C473.42,-752.64 648.93,-653.69 760,-528.55 825.44,-454.81 871.4,-345.84 891.55,-292.04"/>
<polygon fill="black" stroke="black" points="894.83,-293.25 895.01,-282.65 888.27,-290.82 894.83,-293.25"/>
</g>
<!-- signe_fonction -->
<g id="node13" class="node">
<title>signe_fonction</title>
<polygon fill="none" stroke="orange" points="743.5,-276.55 476.5,-276.55 476.5,-240.55 743.5,-240.55 743.5,-276.55"/>
<text text-anchor="middle" x="610" y="-254.15" font-family="Ubuntu" font-size="18.00">Étudier le signe d&#39;une fonction</text>
</g>
<!-- calcul_literral&#45;&gt;signe_fonction -->
<g id="edge29" class="edge">
<title>calcul_literral&#45;&gt;signe_fonction</title>
<path fill="none" stroke="black" d="M303.26,-795.54C267.38,-772.24 216.96,-732.55 195,-682.55 184.99,-659.76 187.7,-650.34 195,-626.55 250.22,-446.57 463.6,-327.27 561.01,-281.07"/>
<polygon fill="black" stroke="black" points="562.77,-284.1 570.34,-276.69 559.8,-277.77 562.77,-284.1"/>
</g>
<!-- manipuler_vecteurs -->
<g id="node5" class="node">
<title>manipuler_vecteurs</title>
<polygon fill="none" stroke="green" points="1013.5,-1454.55 812.5,-1454.55 812.5,-1406.55 1013.5,-1406.55 1013.5,-1454.55"/>
<text text-anchor="middle" x="913" y="-1436.15" font-family="Ubuntu" font-size="18.00">Manipuler les vecteurs</text>
<text text-anchor="middle" x="913" y="-1416.15" font-family="Ubuntu" font-size="18.00">dans le plan</text>
</g>
<!-- def_vecteurs -->
<g id="node6" class="node">
<title>def_vecteurs</title>
<polygon fill="none" stroke="green" points="1020,-1303.55 806,-1303.55 806,-1235.55 1020,-1235.55 1020,-1303.55"/>
<text text-anchor="middle" x="913" y="-1285.15" font-family="Ubuntu" font-size="18.00">Définition des vecteurs, </text>
<text text-anchor="middle" x="913" y="-1265.15" font-family="Ubuntu" font-size="18.00">lien avec la translation,</text>
<text text-anchor="middle" x="913" y="-1245.15" font-family="Ubuntu" font-size="18.00"> relation de Chasles</text>
</g>
<!-- manipuler_vecteurs&#45;&gt;def_vecteurs -->
<g id="edge3" class="edge">
<title>manipuler_vecteurs&#45;&gt;def_vecteurs</title>
<path fill="none" stroke="black" d="M913,-1406.43C913,-1382.23 913,-1343.69 913,-1313.82"/>
<polygon fill="black" stroke="black" points="916.5,-1313.66 913,-1303.66 909.5,-1313.66 916.5,-1313.66"/>
</g>
<!-- repere_vecteurs -->
<g id="node7" class="node">
<title>repere_vecteurs</title>
<polygon fill="none" stroke="red" points="1003,-1078.55 823,-1078.55 823,-1010.55 1003,-1010.55 1003,-1078.55"/>
<text text-anchor="middle" x="913" y="-1060.15" font-family="Ubuntu" font-size="18.00">Base orthonormée, </text>
<text text-anchor="middle" x="913" y="-1040.15" font-family="Ubuntu" font-size="18.00">coordonnées,</text>
<text text-anchor="middle" x="913" y="-1020.15" font-family="Ubuntu" font-size="18.00"> norme d&#39;un vecteur</text>
</g>
<!-- def_vecteurs&#45;&gt;repere_vecteurs -->
<g id="edge4" class="edge">
<title>def_vecteurs&#45;&gt;repere_vecteurs</title>
<path fill="none" stroke="black" d="M913,-1235.16C913,-1196.21 913,-1131.7 913,-1088.91"/>
<polygon fill="black" stroke="black" points="916.5,-1088.8 913,-1078.8 909.5,-1088.8 916.5,-1088.8"/>
</g>
<!-- pb_geometrie -->
<g id="node8" class="node">
<title>pb_geometrie</title>
<polygon fill="none" stroke="orange" points="1022,-843.55 804,-843.55 804,-795.55 1022,-795.55 1022,-843.55"/>
<text text-anchor="middle" x="913" y="-825.15" font-family="Ubuntu" font-size="18.00">Résoudre des</text>
<text text-anchor="middle" x="913" y="-805.15" font-family="Ubuntu" font-size="18.00">problèmes de géométrie</text>
</g>
<!-- repere_vecteurs&#45;&gt;pb_geometrie -->
<g id="edge5" class="edge">
<title>repere_vecteurs&#45;&gt;pb_geometrie</title>
<path fill="none" stroke="black" d="M913,-1010.16C913,-967.93 913,-895.66 913,-853.6"/>
<polygon fill="black" stroke="black" points="916.5,-853.59 913,-843.59 909.5,-853.59 916.5,-853.59"/>
</g>
<!-- pb_geometrie&#45;&gt;droites -->
<g id="edge6" class="edge">
<title>pb_geometrie&#45;&gt;droites</title>
<path fill="none" stroke="black" d="M913.87,-795.43C914.89,-768.46 916.58,-723.66 917.74,-692.93"/>
<polygon fill="black" stroke="black" points="921.25,-692.82 918.13,-682.69 914.25,-692.55 921.25,-692.82"/>
</g>
<!-- droites&#45;&gt;var_fonction -->
<g id="edge26" class="edge">
<title>droites&#45;&gt;var_fonction</title>
<path fill="none" stroke="black" stroke-width="2" d="M917.66,-624.12C914.64,-549.11 907.36,-368.06 904.35,-293.01"/>
<polygon fill="black" stroke="black" stroke-width="2" points="914.17,-624.58 918.07,-634.43 921.17,-624.3 914.17,-624.58"/>
<polygon fill="black" stroke="black" stroke-width="2" points="907.83,-292.58 903.93,-282.73 900.84,-292.86 907.83,-292.58"/>
<text text-anchor="middle" x="969" y="-462.85" font-family="Ubuntu" font-size="14.00">Fonctions affines</text>
</g>
<!-- fonction_ref -->
<g id="node10" class="node">
<title>fonction_ref</title>
<polygon fill="none" stroke="green" points="1293,-292.55 1063,-292.55 1063,-224.55 1293,-224.55 1293,-292.55"/>
<text text-anchor="middle" x="1178" y="-274.15" font-family="Ubuntu" font-size="18.00">Se constituer </text>
<text text-anchor="middle" x="1178" y="-254.15" font-family="Ubuntu" font-size="18.00">un répertoire de fonctions</text>
<text text-anchor="middle" x="1178" y="-234.15" font-family="Ubuntu" font-size="18.00"> de référence</text>
</g>
<!-- rep_fonction -->
<g id="node11" class="node">
<title>rep_fonction</title>
<polygon fill="none" stroke="orange" points="751.5,-490.55 476.5,-490.55 476.5,-442.55 751.5,-442.55 751.5,-490.55"/>
<text text-anchor="middle" x="614" y="-472.15" font-family="Ubuntu" font-size="18.00">Représenter algébriquement </text>
<text text-anchor="middle" x="614" y="-452.15" font-family="Ubuntu" font-size="18.00">et graphiquement les fonctions</text>
</g>
<!-- rep_fonction&#45;&gt;fonction_ref -->
<g id="edge7" class="edge">
<title>rep_fonction&#45;&gt;fonction_ref</title>
<path fill="none" stroke="black" d="M709.91,-442.52C800.32,-419.31 938.61,-379.92 1053,-330.55 1074.56,-321.24 1097.15,-309.19 1117.11,-297.66"/>
<polygon fill="black" stroke="black" points="1118.92,-300.66 1125.79,-292.59 1115.39,-294.61 1118.92,-300.66"/>
</g>
<!-- rep_fonction&#45;&gt;var_fonction -->
<g id="edge8" class="edge">
<title>rep_fonction&#45;&gt;var_fonction</title>
<path fill="none" stroke="black" d="M646.31,-442.51C699.24,-404.79 804.3,-329.9 862.26,-288.59"/>
<polygon fill="black" stroke="black" points="864.34,-291.4 870.46,-282.74 860.28,-285.7 864.34,-291.4"/>
</g>
<!-- rep_fonction&#45;&gt;signe_fonction -->
<g id="edge9" class="edge">
<title>rep_fonction&#45;&gt;signe_fonction</title>
<path fill="none" stroke="black" d="M613.55,-442.32C612.8,-403.97 611.32,-327.61 610.53,-286.79"/>
<polygon fill="black" stroke="black" points="614.03,-286.67 610.33,-276.74 607.03,-286.81 614.03,-286.67"/>
</g>
<!-- info_chiffree_stat_descriptive -->
<g id="node14" class="node">
<title>info_chiffree_stat_descriptive</title>
<polygon fill="none" stroke="red" points="2009,-121.55 1749,-121.55 1749,-73.55 2009,-73.55 2009,-121.55"/>
<text text-anchor="middle" x="1879" y="-103.15" font-family="Ubuntu" font-size="18.00">Utiliser l&#39;information chiffrée </text>
<text text-anchor="middle" x="1879" y="-83.15" font-family="Ubuntu" font-size="18.00">et statistique descriptive</text>
</g>
<!-- proportion -->
<g id="node15" class="node">
<title>proportion</title>
<polygon fill="none" stroke="green" points="2132,-292.55 2002,-292.55 2002,-224.55 2132,-224.55 2132,-292.55"/>
<text text-anchor="middle" x="2067" y="-274.15" font-family="Ubuntu" font-size="18.00">Proportion,</text>
<text text-anchor="middle" x="2067" y="-254.15" font-family="Ubuntu" font-size="18.00"> pourcentage,</text>
<text text-anchor="middle" x="2067" y="-234.15" font-family="Ubuntu" font-size="18.00"> évolutions</text>
</g>
<!-- proportion&#45;&gt;info_chiffree_stat_descriptive -->
<g id="edge10" class="edge">
<title>proportion&#45;&gt;info_chiffree_stat_descriptive</title>
<path fill="none" stroke="black" d="M2027.59,-224.21C1994.04,-195.84 1946.29,-155.46 1914.05,-128.19"/>
<polygon fill="black" stroke="black" points="1916.11,-125.34 1906.21,-121.56 1911.58,-130.69 1916.11,-125.34"/>
</g>
<!-- moyenne -->
<g id="node16" class="node">
<title>moyenne</title>
<polygon fill="none" stroke="red" points="1983.5,-282.55 1774.5,-282.55 1774.5,-234.55 1983.5,-234.55 1983.5,-282.55"/>
<text text-anchor="middle" x="1879" y="-264.15" font-family="Ubuntu" font-size="18.00">Moyenne, </text>
<text text-anchor="middle" x="1879" y="-244.15" font-family="Ubuntu" font-size="18.00">linéarité de la moyenne</text>
</g>
<!-- moyenne&#45;&gt;info_chiffree_stat_descriptive -->
<g id="edge11" class="edge">
<title>moyenne&#45;&gt;info_chiffree_stat_descriptive</title>
<path fill="none" stroke="black" d="M1879,-234.43C1879,-207.46 1879,-162.66 1879,-131.93"/>
<polygon fill="black" stroke="black" points="1882.5,-131.69 1879,-121.69 1875.5,-131.69 1882.5,-131.69"/>
</g>
<!-- proba -->
<g id="node17" class="node">
<title>proba</title>
<polygon fill="none" stroke="red" points="1756.5,-282.55 1541.5,-282.55 1541.5,-234.55 1756.5,-234.55 1756.5,-282.55"/>
<text text-anchor="middle" x="1649" y="-264.15" font-family="Ubuntu" font-size="18.00">Modéliser le hasard</text>
<text text-anchor="middle" x="1649" y="-244.15" font-family="Ubuntu" font-size="18.00">calculer des probabilités</text>
</g>
<!-- echantillonage -->
<g id="node18" class="node">
<title>echantillonage</title>
<polygon fill="none" stroke="red" points="1523.5,-276.55 1374.5,-276.55 1374.5,-240.55 1523.5,-240.55 1523.5,-276.55"/>
<text text-anchor="middle" x="1449" y="-254.15" font-family="Ubuntu" font-size="18.00">Échantillonnage</text>
</g>
<!-- var_python -->
<g id="node19" class="node">
<title>var_python</title>
<polygon fill="none" stroke="green" points="1699.5,-1068.55 1424.5,-1068.55 1424.5,-1020.55 1699.5,-1020.55 1699.5,-1068.55"/>
<text text-anchor="middle" x="1562" y="-1050.15" font-family="Ubuntu" font-size="18.00">Utiliser les variables </text>
<text text-anchor="middle" x="1562" y="-1030.15" font-family="Ubuntu" font-size="18.00">et les instructions élémentaires</text>
</g>
<!-- boucles -->
<g id="node20" class="node">
<title>boucles</title>
<polygon fill="none" stroke="green" points="1582.5,-837.55 1317.5,-837.55 1317.5,-801.55 1582.5,-801.55 1582.5,-837.55"/>
<text text-anchor="middle" x="1450" y="-815.15" font-family="Ubuntu" font-size="18.00">Utiliser des boucles en Python</text>
</g>
<!-- var_python&#45;&gt;boucles -->
<g id="edge15" class="edge">
<title>var_python&#45;&gt;boucles</title>
<path fill="none" stroke="black" d="M1550.44,-1020.52C1529.5,-978.83 1485.42,-891.07 1463.28,-846.99"/>
<polygon fill="black" stroke="black" points="1466.27,-845.14 1458.66,-837.78 1460.02,-848.29 1466.27,-845.14"/>
</g>
<!-- fonction_python -->
<g id="node22" class="node">
<title>fonction_python</title>
<polygon fill="none" stroke="red" points="1535.5,-676.55 1364.5,-676.55 1364.5,-640.55 1535.5,-640.55 1535.5,-676.55"/>
<text text-anchor="middle" x="1450" y="-654.15" font-family="Ubuntu" font-size="18.00">Notion de fonction</text>
</g>
<!-- var_python&#45;&gt;fonction_python -->
<g id="edge12" class="edge">
<title>var_python&#45;&gt;fonction_python</title>
<path fill="none" stroke="black" d="M1572.44,-1020.24C1591.78,-973.46 1628.06,-865.75 1592,-785.55 1571.34,-739.6 1524.74,-703.6 1490.53,-682.05"/>
<polygon fill="black" stroke="black" points="1492.04,-678.87 1481.68,-676.63 1488.37,-684.84 1492.04,-678.87"/>
</g>
<!-- boucles&#45;&gt;fonction_python -->
<g id="edge13" class="edge">
<title>boucles&#45;&gt;fonction_python</title>
<path fill="none" stroke="black" d="M1450,-801.53C1450,-774.18 1450,-720.17 1450,-687.22"/>
<polygon fill="black" stroke="black" points="1453.5,-686.92 1450,-676.92 1446.5,-686.92 1453.5,-686.92"/>
</g>
<!-- conditions -->
<g id="node21" class="node">
<title>conditions</title>
<polygon fill="none" stroke="orange" points="1908.5,-837.55 1621.5,-837.55 1621.5,-801.55 1908.5,-801.55 1908.5,-837.55"/>
<text text-anchor="middle" x="1765" y="-815.15" font-family="Ubuntu" font-size="18.00">Utiliser des conditions en Python</text>
</g>
<!-- conditions&#45;&gt;fonction_python -->
<g id="edge14" class="edge">
<title>conditions&#45;&gt;fonction_python</title>
<path fill="none" stroke="black" d="M1736.29,-801.45C1704.95,-783.03 1653.06,-753.23 1607,-730.05 1571.81,-712.33 1531.22,-694.16 1500.12,-680.71"/>
<polygon fill="black" stroke="black" points="1501.37,-677.43 1490.8,-676.69 1498.6,-683.86 1501.37,-677.43"/>
</g>
<!-- fonction_python&#45;&gt;fonction_ref -->
<g id="edge18" class="edge">
<title>fonction_python&#45;&gt;fonction_ref</title>
<path fill="none" stroke="black" d="M1417.97,-634.04C1387.07,-610.13 1340.49,-570.7 1309,-528.55 1254.9,-456.11 1213.81,-357.83 1193.05,-302.33"/>
<polygon fill="black" stroke="black" points="1416.17,-637.07 1426.24,-640.36 1420.42,-631.51 1416.17,-637.07"/>
<polygon fill="black" stroke="black" points="1196.28,-300.97 1189.53,-292.81 1189.71,-303.4 1196.28,-300.97"/>
</g>
<!-- savoir_programmer -->
<g id="node23" class="node">
<title>savoir_programmer</title>
<polygon fill="none" stroke="red" points="1580,-484.55 1318,-484.55 1318,-448.55 1580,-448.55 1580,-484.55"/>
<text text-anchor="middle" x="1449" y="-462.15" font-family="Ubuntu" font-size="18.00">Savoir programmer en Python</text>
</g>
<!-- fonction_python&#45;&gt;savoir_programmer -->
<g id="edge16" class="edge">
<title>fonction_python&#45;&gt;savoir_programmer</title>
<path fill="none" stroke="black" d="M1449.91,-640.35C1449.74,-607.21 1449.35,-534.29 1449.14,-494.59"/>
<polygon fill="black" stroke="black" points="1452.64,-494.55 1449.09,-484.57 1445.64,-494.59 1452.64,-494.55"/>
</g>
<!-- savoir_programmer&#45;&gt;var_fonction -->
<g id="edge20" class="edge">
<title>savoir_programmer&#45;&gt;var_fonction</title>
<path fill="none" stroke="black" d="M1392.69,-448.45C1315.41,-424.51 1172.58,-378.52 1054,-330.55 1021.67,-317.47 986.35,-300.99 958.01,-287.2"/>
<polygon fill="black" stroke="black" points="959.2,-283.88 948.68,-282.63 956.12,-290.17 959.2,-283.88"/>
</g>
<!-- savoir_programmer&#45;&gt;info_chiffree_stat_descriptive -->
<g id="edge21" class="edge">
<title>savoir_programmer&#45;&gt;info_chiffree_stat_descriptive</title>
<path fill="none" stroke="black" d="M1433.5,-448.54C1396.04,-405.34 1307.82,-289.63 1366,-216.55 1411.85,-158.96 1603.13,-127.12 1738.66,-111.43"/>
<polygon fill="black" stroke="black" points="1739.19,-114.89 1748.73,-110.28 1738.4,-107.94 1739.19,-114.89"/>
</g>
<!-- savoir_programmer&#45;&gt;proba -->
<g id="edge22" class="edge">
<title>savoir_programmer&#45;&gt;proba</title>
<path fill="none" stroke="black" d="M1465.71,-448.34C1499.61,-413.42 1576.87,-333.84 1619.46,-289.97"/>
<polygon fill="black" stroke="black" points="1622.03,-292.35 1626.49,-282.73 1617.01,-287.47 1622.03,-292.35"/>
</g>
<!-- savoir_programmer&#45;&gt;echantillonage -->
<g id="edge23" class="edge">
<title>savoir_programmer&#45;&gt;echantillonage</title>
<path fill="none" stroke="black" d="M1449,-448.34C1449,-412.5 1449,-329.63 1449,-286.59"/>
<polygon fill="black" stroke="black" points="1452.5,-286.56 1449,-276.56 1445.5,-286.56 1452.5,-286.56"/>
</g>
<!-- prop_math -->
<g id="node24" class="node">
<title>prop_math</title>
<polygon fill="none" stroke="red" points="638.5,-1068.55 401.5,-1068.55 401.5,-1020.55 638.5,-1020.55 638.5,-1068.55"/>
<text text-anchor="middle" x="520" y="-1050.15" font-family="Ubuntu" font-size="18.00">Reconnaître une </text>
<text text-anchor="middle" x="520" y="-1030.15" font-family="Ubuntu" font-size="18.00">proposition mathématique</text>
</g>
<!-- prop_math&#45;&gt;pb_geometrie -->
<g id="edge24" class="edge">
<title>prop_math&#45;&gt;pb_geometrie</title>
<path fill="none" stroke="black" d="M560.58,-1020.52C633.19,-979.32 785.06,-893.14 863.6,-848.58"/>
<polygon fill="black" stroke="black" points="865.38,-851.59 872.35,-843.61 861.92,-845.5 865.38,-851.59"/>
</g>
<!-- contre_exemple -->
<g id="node25" class="node">
<title>contre_exemple</title>
<polygon fill="none" stroke="red" points="190.5,-1068.55 41.5,-1068.55 41.5,-1020.55 190.5,-1020.55 190.5,-1068.55"/>
<text text-anchor="middle" x="116" y="-1050.15" font-family="Ubuntu" font-size="18.00">Utiliser un</text>
<text text-anchor="middle" x="116" y="-1030.15" font-family="Ubuntu" font-size="18.00"> contre&#45;exemple</text>
</g>
<!-- contre_exemple&#45;&gt;arithmetique -->
<g id="edge25" class="edge">
<title>contre_exemple&#45;&gt;arithmetique</title>
<path fill="none" stroke="black" d="M116,-1020.52C116,-983.69 116,-910.91 116,-864.05"/>
<polygon fill="black" stroke="black" points="119.5,-863.89 116,-853.89 112.5,-863.89 119.5,-863.89"/>
</g>
<!-- raisonnement -->
<g id="node26" class="node">
<title>raisonnement</title>
<polygon fill="none" stroke="orange" points="383.5,-1078.55 208.5,-1078.55 208.5,-1010.55 383.5,-1010.55 383.5,-1078.55"/>
<text text-anchor="middle" x="296" y="-1060.15" font-family="Ubuntu" font-size="18.00">Raisonnements par</text>
<text text-anchor="middle" x="296" y="-1040.15" font-family="Ubuntu" font-size="18.00"> disjonction de cas </text>
<text text-anchor="middle" x="296" y="-1020.15" font-family="Ubuntu" font-size="18.00">et par l&#39;absurde</text>
</g>
<!-- raisonnement&#45;&gt;arithmetique -->
<g id="edge17" class="edge">
<title>raisonnement&#45;&gt;arithmetique</title>
<path fill="none" stroke="black" d="M269.05,-1010.16C237.08,-970.55 183.78,-904.51 149.27,-861.76"/>
<polygon fill="black" stroke="black" points="151.84,-859.38 142.84,-853.8 146.4,-863.77 151.84,-859.38"/>
</g>
</g>
</svg>
