<?xml version="1.0" encoding="UTF-8" standalone="no"?>
<!DOCTYPE svg PUBLIC "-//W3C//DTD SVG 1.1//EN"
 "http://www.w3.org/Graphics/SVG/1.1/DTD/svg11.dtd">
<!-- Generated by graphviz version 2.43.0 (0)
 -->
<!-- Title: G Pages: 1 -->
<svg width="1292pt" height="542pt"
 viewBox="0.00 0.00 1292.00 542.00" xmlns="http://www.w3.org/2000/svg" xmlns:xlink="http://www.w3.org/1999/xlink">
<g id="graph0" class="graph" transform="scale(1 1) rotate(0) translate(4 538)">
<title>G</title>
<polygon fill="white" stroke="transparent" points="-4,4 -4,-538 1288,-538 1288,4 -4,4"/>
<g id="clust1" class="cluster">
<title>cluster_v</title>
<polygon fill="lightgrey" stroke="black" points="157,-307 157,-526 1276,-526 1276,-307 157,-307"/>
<text text-anchor="start" x="549" y="-511.8" font-family="Times,serif" text-decoration="underline" font-size="14.00">Techniques vectorielles (géométrie vectorielle)</text>
</g>
<g id="clust2" class="cluster">
<title>cluster_r</title>
<polygon fill="lightgrey" stroke="black" points="8,-8 8,-299 488,-299 488,-8 8,-8"/>
<text text-anchor="start" x="45" y="-284.8" font-family="Times,serif" text-decoration="underline" font-size="14.00">Géométrie du plan grâce aux vecteurs (geométrie affine)</text>
</g>
<!-- base -->
<g id="node1" class="node">
<title>base</title>
<polygon fill="white" stroke="black" points="760,-495 572,-495 572,-459 760,-459 760,-495"/>
<text text-anchor="middle" x="666" y="-473.3" font-family="Times,serif" font-size="14.00">Base vectorielle du plan</text>
</g>
<!-- baseo -->
<g id="node2" class="node">
<title>baseo</title>
<polygon fill="white" stroke="black" points="1023,-423 835,-423 835,-387 1023,-387 1023,-423"/>
<text text-anchor="middle" x="929" y="-401.3" font-family="Times,serif" font-size="14.00">Base orthormée du plan</text>
</g>
<!-- base&#45;&gt;baseo -->
<g id="edge7" class="edge">
<title>base&#45;&gt;baseo</title>
<path fill="none" stroke="black" d="M730,-458.97C767.71,-448.93 815.57,-436.19 854.91,-425.72"/>
<polygon fill="black" stroke="black" points="855.95,-429.07 864.71,-423.11 854.15,-422.3 855.95,-429.07"/>
</g>
<!-- coordo -->
<g id="node3" class="node">
<title>coordo</title>
<polygon fill="white" stroke="black" points="817,-423 515,-423 515,-387 817,-387 817,-423"/>
<text text-anchor="middle" x="666" y="-401.3" font-family="Times,serif" font-size="14.00">Coordonnée d&#39;un vecteur dans une base</text>
</g>
<!-- base&#45;&gt;coordo -->
<g id="edge8" class="edge">
<title>base&#45;&gt;coordo</title>
<path fill="none" stroke="black" d="M666,-458.7C666,-450.98 666,-441.71 666,-433.11"/>
<polygon fill="black" stroke="black" points="669.5,-433.1 666,-423.1 662.5,-433.1 669.5,-433.1"/>
</g>
<!-- addition -->
<g id="node5" class="node">
<title>addition</title>
<polygon fill="white" stroke="black" points="1267.5,-351 1066.5,-351 1066.5,-315 1267.5,-315 1267.5,-351"/>
<text text-anchor="middle" x="1167" y="-329.3" font-family="Times,serif" font-size="14.00">Coordonnée d&#39;une somme</text>
</g>
<!-- base&#45;&gt;addition -->
<g id="edge11" class="edge">
<title>base&#45;&gt;addition</title>
<path fill="none" stroke="black" d="M760.19,-473.62C835.83,-469.08 943.63,-456.6 1032,-423 1072.49,-407.61 1113.21,-378.44 1139.18,-357.69"/>
<polygon fill="black" stroke="black" points="1141.52,-360.3 1147.07,-351.28 1137.11,-354.87 1141.52,-360.3"/>
</g>
<!-- mult -->
<g id="node6" class="node">
<title>mult</title>
<polygon fill="white" stroke="black" points="521,-351 165,-351 165,-315 521,-315 521,-351"/>
<text text-anchor="middle" x="343" y="-329.3" font-family="Times,serif" font-size="14.00">Coordonnée de la multiplication par un scalaire</text>
</g>
<!-- base&#45;&gt;mult -->
<g id="edge12" class="edge">
<title>base&#45;&gt;mult</title>
<path fill="none" stroke="black" d="M606.16,-458.98C575.69,-449.62 538.34,-437.05 506,-423 460.86,-403.39 411.6,-375.52 379.18,-356.22"/>
<polygon fill="black" stroke="black" points="380.87,-353.15 370.5,-351.01 377.27,-359.16 380.87,-353.15"/>
</g>
<!-- repere -->
<g id="node8" class="node">
<title>repere</title>
<polygon fill="white" stroke="black" points="235,-268 79,-268 79,-232 235,-232 235,-268"/>
<text text-anchor="middle" x="157" y="-246.3" font-family="Times,serif" font-size="14.00">Repère orthonormé</text>
</g>
<!-- base&#45;&gt;repere -->
<g id="edge15" class="edge">
<title>base&#45;&gt;repere</title>
<path fill="none" stroke="black" d="M571.75,-467.49C434.9,-452.95 191.71,-418.18 139,-351 122.59,-330.09 131.74,-299.14 142.04,-277.22"/>
<polygon fill="black" stroke="black" points="145.24,-278.65 146.61,-268.15 138.99,-275.51 145.24,-278.65"/>
</g>
<!-- norme -->
<g id="node4" class="node">
<title>norme</title>
<polygon fill="white" stroke="black" points="1048.5,-351 811.5,-351 811.5,-315 1048.5,-315 1048.5,-351"/>
<text text-anchor="middle" x="930" y="-329.3" font-family="Times,serif" font-size="14.00">Calculer la norme d&#39;un vecteur</text>
</g>
<!-- baseo&#45;&gt;norme -->
<g id="edge9" class="edge">
<title>baseo&#45;&gt;norme</title>
<path fill="none" stroke="black" d="M929.25,-386.7C929.36,-378.98 929.49,-369.71 929.61,-361.11"/>
<polygon fill="black" stroke="black" points="933.11,-361.15 929.76,-351.1 926.11,-361.05 933.11,-361.15"/>
</g>
<!-- coordo&#45;&gt;norme -->
<g id="edge10" class="edge">
<title>coordo&#45;&gt;norme</title>
<path fill="none" stroke="black" d="M730.24,-386.97C768.09,-376.93 816.14,-364.19 855.62,-353.72"/>
<polygon fill="black" stroke="black" points="856.7,-357.06 865.47,-351.11 854.9,-350.29 856.7,-357.06"/>
</g>
<!-- coordo&#45;&gt;addition -->
<g id="edge13" class="edge">
<title>coordo&#45;&gt;addition</title>
<path fill="none" stroke="black" d="M796.76,-387C870.33,-377.27 964.15,-364.59 1056.28,-351.24"/>
<polygon fill="black" stroke="black" points="1056.95,-354.68 1066.35,-349.77 1055.95,-347.75 1056.95,-354.68"/>
</g>
<!-- coordo&#45;&gt;mult -->
<g id="edge14" class="edge">
<title>coordo&#45;&gt;mult</title>
<path fill="none" stroke="black" d="M587.4,-386.97C540.32,-376.76 480.34,-363.76 431.58,-353.2"/>
<polygon fill="black" stroke="black" points="432.19,-349.75 421.67,-351.05 430.71,-356.59 432.19,-349.75"/>
</g>
<!-- det -->
<g id="node7" class="node">
<title>det</title>
<polygon fill="white" stroke="black" points="793,-351 539,-351 539,-315 793,-315 793,-351"/>
<text text-anchor="middle" x="666" y="-329.3" font-family="Times,serif" font-size="14.00">Le déterminant de deux vecteurs</text>
</g>
<!-- coordo&#45;&gt;det -->
<g id="edge17" class="edge">
<title>coordo&#45;&gt;det</title>
<path fill="none" stroke="black" d="M666,-386.7C666,-378.98 666,-369.71 666,-361.11"/>
<polygon fill="black" stroke="black" points="669.5,-361.1 666,-351.1 662.5,-361.1 669.5,-361.1"/>
</g>
<!-- coordo&#45;&gt;repere -->
<g id="edge16" class="edge">
<title>coordo&#45;&gt;repere</title>
<path fill="none" stroke="black" d="M514.69,-398.39C373.1,-391.54 179.84,-377.45 156,-351 138.54,-331.63 141.91,-300.56 147.68,-278.19"/>
<polygon fill="black" stroke="black" points="151.13,-278.88 150.53,-268.3 144.4,-276.94 151.13,-278.88"/>
</g>
<!-- distance -->
<g id="node11" class="node">
<title>distance</title>
<polygon fill="white" stroke="black" points="465,-52 55,-52 55,-16 465,-16 465,-52"/>
<text text-anchor="middle" x="260" y="-30.3" font-family="Times,serif" font-size="14.00">Distance entre deux points à partir de leur coordonnée</text>
</g>
<!-- norme&#45;&gt;distance -->
<g id="edge4" class="edge">
<title>norme&#45;&gt;distance</title>
<path fill="none" stroke="black" d="M904.89,-314.78C839.41,-270.64 656.88,-152.42 489,-88 451.49,-73.61 408.96,-62.45 370.82,-54.16"/>
<polygon fill="black" stroke="black" points="371.22,-50.66 360.71,-52.01 369.76,-57.51 371.22,-50.66"/>
</g>
<!-- aire -->
<g id="node12" class="node">
<title>aire</title>
<polygon fill="white" stroke="black" points="479.5,-268 272.5,-268 272.5,-232 479.5,-232 479.5,-268"/>
<text text-anchor="middle" x="376" y="-246.3" font-family="Times,serif" font-size="14.00">Aire d&#39;un parallélogramme</text>
</g>
<!-- det&#45;&gt;aire -->
<g id="edge6" class="edge">
<title>det&#45;&gt;aire</title>
<path fill="none" stroke="black" d="M604.85,-314.92C558.68,-302.02 495.22,-284.3 446.84,-270.79"/>
<polygon fill="black" stroke="black" points="447.64,-267.37 437.06,-268.06 445.75,-274.12 447.64,-267.37"/>
</g>
<!-- droites -->
<g id="node13" class="node">
<title>droites</title>
<polygon fill="white" stroke="black" points="835.52,-39.56 666,-52 496.48,-39.56 496.63,-19.44 835.37,-19.44 835.52,-39.56"/>
<text text-anchor="middle" x="666" y="-30.3" font-family="Times,serif" font-size="14.00">Caractérisation des droites</text>
</g>
<!-- det&#45;&gt;droites -->
<g id="edge18" class="edge">
<title>det&#45;&gt;droites</title>
<path fill="none" stroke="black" d="M666,-314.75C666,-265.33 666,-122.94 666,-62.58"/>
<polygon fill="black" stroke="black" points="669.5,-62.3 666,-52.3 662.5,-62.3 669.5,-62.3"/>
</g>
<!-- coordop -->
<g id="node9" class="node">
<title>coordop</title>
<polygon fill="white" stroke="black" points="403.5,-196 16.5,-196 16.5,-160 403.5,-160 403.5,-196"/>
<text text-anchor="middle" x="210" y="-174.3" font-family="Times,serif" font-size="14.00">Coordonnées d&#39;un point dans un repère orthonormé</text>
</g>
<!-- repere&#45;&gt;coordop -->
<g id="edge1" class="edge">
<title>repere&#45;&gt;coordop</title>
<path fill="none" stroke="black" d="M170.1,-231.7C176.39,-223.39 184.05,-213.28 190.96,-204.14"/>
<polygon fill="black" stroke="black" points="193.8,-206.19 197.05,-196.1 188.22,-201.96 193.8,-206.19"/>
</g>
<!-- coordopv -->
<g id="node10" class="node">
<title>coordopv</title>
<polygon fill="white" stroke="black" points="480,-124 16,-124 16,-88 480,-88 480,-124"/>
<text text-anchor="middle" x="248" y="-102.3" font-family="Times,serif" font-size="14.00">Coordonnées d&#39;un vecteur à partir des coordonnées des points</text>
</g>
<!-- repere&#45;&gt;coordopv -->
<g id="edge2" class="edge">
<title>repere&#45;&gt;coordopv</title>
<path fill="none" stroke="black" d="M235.24,-235.26C308.39,-222.04 407.26,-203.05 413,-196 439.63,-163.29 397.01,-140.89 348.42,-126.74"/>
<polygon fill="black" stroke="black" points="349.22,-123.33 338.64,-124.02 347.34,-130.07 349.22,-123.33"/>
</g>
<!-- coordop&#45;&gt;coordopv -->
<g id="edge3" class="edge">
<title>coordop&#45;&gt;coordopv</title>
<path fill="none" stroke="black" d="M219.39,-159.7C223.76,-151.64 229.06,-141.89 233.9,-132.98"/>
<polygon fill="black" stroke="black" points="237.02,-134.56 238.71,-124.1 230.87,-131.22 237.02,-134.56"/>
</g>
<!-- coordopv&#45;&gt;distance -->
<g id="edge5" class="edge">
<title>coordopv&#45;&gt;distance</title>
<path fill="none" stroke="black" d="M250.97,-87.7C252.29,-79.98 253.88,-70.71 255.35,-62.11"/>
<polygon fill="black" stroke="black" points="258.83,-62.55 257.07,-52.1 251.93,-61.37 258.83,-62.55"/>
</g>
<!-- coordopv&#45;&gt;droites -->
<g id="edge19" class="edge">
<title>coordopv&#45;&gt;droites</title>
<path fill="none" stroke="black" d="M349.72,-87.97C422.13,-75.84 518.1,-59.77 585.26,-48.52"/>
<polygon fill="black" stroke="black" points="586.09,-51.93 595.37,-46.83 584.93,-45.03 586.09,-51.93"/>
</g>
</g>
</svg>
