<?xml version="1.0" encoding="UTF-8" standalone="no"?>
<!DOCTYPE svg PUBLIC "-//W3C//DTD SVG 1.1//EN"
 "http://www.w3.org/Graphics/SVG/1.1/DTD/svg11.dtd">
<!-- Generated by graphviz version 2.43.0 (0)
 -->
<!-- Title: G Pages: 1 -->
<svg width="206pt" height="160pt"
 viewBox="0.00 0.00 206.00 160.00" xmlns="http://www.w3.org/2000/svg" xmlns:xlink="http://www.w3.org/1999/xlink">
<g id="graph0" class="graph" transform="scale(1 1) rotate(0) translate(4 156)">
<title>G</title>
<polygon fill="white" stroke="transparent" points="-4,4 -4,-156 202,-156 202,4 -4,4"/>
<!-- coefmul12 -->
<g id="node1" class="node">
<title>coefmul12</title>
<ellipse fill="none" stroke="black" cx="63" cy="-134" rx="27" ry="18"/>
</g>
<!-- qinter -->
<g id="node4" class="node">
<title>qinter</title>
<ellipse fill="none" stroke="black" cx="99" cy="-76" rx="27" ry="18"/>
</g>
<!-- coefmul12&#45;&gt;qinter -->
<g id="edge2" class="edge">
<title>coefmul12&#45;&gt;qinter</title>
<path fill="none" stroke="black" d="M73.22,-117.1C76.36,-112.21 79.9,-106.72 83.32,-101.39"/>
<polygon fill="black" stroke="black" points="86.42,-103.05 88.88,-92.74 80.53,-99.26 86.42,-103.05"/>
</g>
<!-- coefmul23 -->
<g id="node2" class="node">
<title>coefmul23</title>
<ellipse fill="none" stroke="black" cx="153" cy="-134" rx="27" ry="18"/>
</g>
<!-- qarrivee -->
<g id="node5" class="node">
<title>qarrivee</title>
<ellipse fill="none" stroke="black" cx="171" cy="-76" rx="27" ry="18"/>
</g>
<!-- coefmul23&#45;&gt;qarrivee -->
<g id="edge4" class="edge">
<title>coefmul23&#45;&gt;qarrivee</title>
<path fill="none" stroke="black" d="M158.4,-116.2C159.68,-112.21 161.08,-107.86 162.46,-103.56"/>
<polygon fill="black" stroke="black" points="165.88,-104.38 165.6,-93.79 159.21,-102.24 165.88,-104.38"/>
</g>
<!-- qdepart -->
<g id="node3" class="node">
<title>qdepart</title>
<ellipse fill="none" stroke="black" cx="27" cy="-76" rx="27" ry="18"/>
</g>
<!-- qdepart&#45;&gt;coefmul12 -->
<g id="edge1" class="edge">
<title>qdepart&#45;&gt;coefmul12</title>
<path fill="none" stroke="black" d="M37.12,-92.74C40.26,-97.62 43.79,-103.11 47.21,-108.44"/>
<polygon fill="black" stroke="black" points="44.43,-110.58 52.78,-117.1 50.32,-106.8 44.43,-110.58"/>
</g>
<!-- qdepart&#45;&gt;qinter -->
<g id="edge5" class="edge">
<title>qdepart&#45;&gt;qinter</title>
<path fill="none" stroke="black" d="M54,-76C56.61,-76 59.23,-76 61.84,-76"/>
<polygon fill="black" stroke="black" points="61.93,-79.5 71.93,-76 61.93,-72.5 61.93,-79.5"/>
</g>
<!-- taux12 -->
<g id="node6" class="node">
<title>taux12</title>
<polygon fill="none" stroke="black" points="72,-36 18,-36 18,0 72,0 72,-36"/>
</g>
<!-- qdepart&#45;&gt;taux12 -->
<g id="edge7" class="edge">
<title>qdepart&#45;&gt;taux12</title>
<path fill="none" stroke="black" d="M32.4,-58.2C33.66,-54.28 35.03,-50.02 36.39,-45.79"/>
<polygon fill="black" stroke="black" points="39.75,-46.77 39.48,-36.18 33.09,-44.63 39.75,-46.77"/>
</g>
<!-- qinter&#45;&gt;coefmul23 -->
<g id="edge3" class="edge">
<title>qinter&#45;&gt;coefmul23</title>
<path fill="none" stroke="black" d="M113.28,-91.81C118.95,-97.69 125.59,-104.58 131.8,-111.02"/>
<polygon fill="black" stroke="black" points="129.35,-113.52 138.81,-118.29 134.39,-108.66 129.35,-113.52"/>
</g>
<!-- qinter&#45;&gt;qarrivee -->
<g id="edge6" class="edge">
<title>qinter&#45;&gt;qarrivee</title>
<path fill="none" stroke="black" d="M126,-76C128.61,-76 131.23,-76 133.84,-76"/>
<polygon fill="black" stroke="black" points="133.93,-79.5 143.93,-76 133.93,-72.5 133.93,-79.5"/>
</g>
<!-- taux23 -->
<g id="node7" class="node">
<title>taux23</title>
<polygon fill="none" stroke="black" points="162,-36 108,-36 108,0 162,0 162,-36"/>
</g>
<!-- qinter&#45;&gt;taux23 -->
<g id="edge9" class="edge">
<title>qinter&#45;&gt;taux23</title>
<path fill="none" stroke="black" d="M109.22,-59.1C112.08,-54.66 115.26,-49.71 118.39,-44.84"/>
<polygon fill="black" stroke="black" points="121.41,-46.62 123.87,-36.31 115.52,-42.83 121.41,-46.62"/>
</g>
<!-- taux12&#45;&gt;qinter -->
<g id="edge8" class="edge">
<title>taux12&#45;&gt;qinter</title>
<path fill="none" stroke="black" d="M61.58,-36.2C66.69,-41.49 72.39,-47.4 77.76,-52.98"/>
<polygon fill="black" stroke="black" points="75.35,-55.52 84.81,-60.29 80.39,-50.66 75.35,-55.52"/>
</g>
<!-- taux23&#45;&gt;qarrivee -->
<g id="edge10" class="edge">
<title>taux23&#45;&gt;qarrivee</title>
<path fill="none" stroke="black" d="M146.13,-36.31C149.05,-40.86 152.26,-45.84 155.37,-50.68"/>
<polygon fill="black" stroke="black" points="152.43,-52.58 160.78,-59.1 158.32,-48.8 152.43,-52.58"/>
</g>
</g>
</svg>
