<?xml version="1.0" encoding="UTF-8" standalone="no"?>
<!DOCTYPE svg PUBLIC "-//W3C//DTD SVG 1.1//EN"
 "http://www.w3.org/Graphics/SVG/1.1/DTD/svg11.dtd">
<!-- Generated by graphviz version 2.43.0 (0)
 -->
<!-- Title: G Pages: 1 -->
<svg width="1406pt" height="498pt"
 viewBox="0.00 0.00 1406.00 498.00" xmlns="http://www.w3.org/2000/svg" xmlns:xlink="http://www.w3.org/1999/xlink">
<g id="graph0" class="graph" transform="scale(1 1) rotate(0) translate(4 494)">
<title>G</title>
<polygon fill="white" stroke="transparent" points="-4,4 -4,-494 1402,-494 1402,4 -4,4"/>
<text text-anchor="start" x="559" y="-8.8" font-family="Ubuntu" font-weight="bold" text-decoration="underline" font-size="14.00">Programme de mathématiques de seconde</text>
<g id="clust1" class="cluster">
<title>cluster_maths_fonctions</title>
<path fill="none" stroke="black" d="M178,-31C178,-31 802,-31 802,-31 808,-31 814,-37 814,-43 814,-43 814,-364 814,-364 814,-370 808,-376 802,-376 802,-376 178,-376 178,-376 172,-376 166,-370 166,-364 166,-364 166,-43 166,-43 166,-37 172,-31 178,-31"/>
<text text-anchor="start" x="369.5" y="-361.8" font-family="Ubuntu" text-decoration="underline" font-size="14.00">Les mathématiques pour les fonctions</text>
</g>
<g id="clust2" class="cluster">
<title>cluster_reels</title>
<polygon fill="lightgrey" stroke="black" points="634,-39 634,-345 806,-345 806,-39 634,-39"/>
<text text-anchor="middle" x="720" y="-329.8" font-family="Ubuntu" font-size="14.00">Manipuler les réels</text>
</g>
<g id="clust3" class="cluster">
<title>cluster_fonction</title>
<polygon fill="lightgrey" stroke="black" points="174,-111 174,-345 626,-345 626,-111 174,-111"/>
<text text-anchor="middle" x="400" y="-329.8" font-family="Ubuntu" font-size="14.00">Les fonctions</text>
</g>
<g id="clust6" class="cluster">
<title>cluster_geometrie</title>
<path fill="none" stroke="black" d="M834,-104C834,-104 1078,-104 1078,-104 1084,-104 1090,-110 1090,-116 1090,-116 1090,-470 1090,-470 1090,-476 1084,-482 1078,-482 1078,-482 834,-482 834,-482 828,-482 822,-476 822,-470 822,-470 822,-116 822,-116 822,-110 828,-104 834,-104"/>
<text text-anchor="start" x="922" y="-467.8" font-family="Ubuntu" text-decoration="underline" font-size="14.00">Géométrie</text>
</g>
<g id="clust7" class="cluster">
<title>cluster_vecteur</title>
<polygon fill="lightgrey" stroke="black" points="864,-270 864,-451 1048,-451 1048,-270 864,-270"/>
<text text-anchor="middle" x="956" y="-435.8" font-family="Ubuntu" font-size="14.00">Les vecteurs</text>
</g>
<g id="clust8" class="cluster">
<title>cluster_droite</title>
<polygon fill="lightgrey" stroke="black" points="830,-112 830,-262 1082,-262 1082,-112 830,-112"/>
<text text-anchor="middle" x="956" y="-246.8" font-family="Ubuntu" font-size="14.00">Les droites dans le plan</text>
</g>
<g id="clust9" class="cluster">
<title>cluster_probastat</title>
<path fill="none" stroke="black" d="M1110,-186C1110,-186 1378,-186 1378,-186 1384,-186 1390,-192 1390,-198 1390,-198 1390,-439 1390,-439 1390,-445 1384,-451 1378,-451 1378,-451 1110,-451 1110,-451 1104,-451 1098,-445 1098,-439 1098,-439 1098,-198 1098,-198 1098,-192 1104,-186 1110,-186"/>
<text text-anchor="start" x="1158" y="-436.8" font-family="Ubuntu" text-decoration="underline" font-size="14.00">Statistiques et probabilités</text>
</g>
<g id="clust11" class="cluster">
<title>cluster_arithmetique</title>
<path fill="none" stroke="black" d="M20,-270C20,-270 146,-270 146,-270 152,-270 158,-276 158,-282 158,-282 158,-439 158,-439 158,-445 152,-451 146,-451 146,-451 20,-451 20,-451 14,-451 8,-445 8,-439 8,-439 8,-282 8,-282 8,-276 14,-270 20,-270"/>
<text text-anchor="start" x="40" y="-436.8" font-family="Ubuntu" text-decoration="underline" font-size="14.00">Arithmétique</text>
</g>
<!-- ensembleDeNombres -->
<g id="node1" class="node">
<title>ensembleDeNombres</title>
<polygon fill="none" stroke="green" points="797.5,-314 642.5,-314 642.5,-278 797.5,-278 797.5,-314"/>
<text text-anchor="middle" x="720" y="-292.3" font-family="Ubuntu" font-size="14.00">Ensemble de nombres</text>
</g>
<!-- intervalle -->
<g id="node2" class="node">
<title>intervalle</title>
<polygon fill="none" stroke="red" points="761.5,-230 678.5,-230 678.5,-194 761.5,-194 761.5,-230"/>
<text text-anchor="middle" x="720" y="-208.3" font-family="Ubuntu" font-size="14.00">Intervalles</text>
</g>
<!-- ensembleDeNombres&#45;&gt;intervalle -->
<g id="edge1" class="edge">
<title>ensembleDeNombres&#45;&gt;intervalle</title>
<path fill="none" stroke="black" d="M720,-277.61C720,-266.77 720,-252.6 720,-240.29"/>
<polygon fill="black" stroke="black" points="723.5,-240.08 720,-230.08 716.5,-240.08 723.5,-240.08"/>
</g>
<!-- inegalite -->
<g id="node3" class="node">
<title>inegalite</title>
<polygon fill="none" stroke="red" points="723,-156 645,-156 645,-120 723,-120 723,-156"/>
<text text-anchor="middle" x="684" y="-134.3" font-family="Ubuntu" font-size="14.00">Inégalités</text>
</g>
<!-- intervalle&#45;&gt;inegalite -->
<g id="edge2" class="edge">
<title>intervalle&#45;&gt;inegalite</title>
<path fill="none" stroke="black" d="M706.95,-184.91C703.85,-178.69 700.53,-172.05 697.41,-165.81"/>
<polygon fill="black" stroke="black" points="703.87,-186.56 711.47,-193.94 710.13,-183.43 703.87,-186.56"/>
<polygon fill="black" stroke="black" points="700.32,-163.82 692.72,-156.44 694.06,-166.95 700.32,-163.82"/>
</g>
<!-- ineq -->
<g id="node4" class="node">
<title>ineq</title>
<polygon fill="none" stroke="red" points="761,-83 669,-83 669,-47 761,-47 761,-83"/>
<text text-anchor="middle" x="715" y="-61.3" font-family="Ubuntu" font-size="14.00">Inéquations</text>
</g>
<!-- inegalite&#45;&gt;ineq -->
<g id="edge3" class="edge">
<title>inegalite&#45;&gt;ineq</title>
<path fill="none" stroke="black" d="M695.51,-110.63C698.09,-104.72 700.83,-98.44 703.42,-92.53"/>
<polygon fill="black" stroke="black" points="692.3,-109.25 691.5,-119.81 698.71,-112.05 692.3,-109.25"/>
<polygon fill="black" stroke="black" points="706.77,-93.59 707.56,-83.03 700.36,-90.79 706.77,-93.59"/>
</g>
<!-- ineq&#45;&gt;intervalle -->
<g id="edge4" class="edge">
<title>ineq&#45;&gt;intervalle</title>
<path fill="none" stroke="black" d="M728.6,-92.7C730,-96.41 731.2,-100.25 732,-104 737.74,-130.86 732.93,-162.14 727.8,-183.92"/>
<polygon fill="black" stroke="black" points="731.71,-91.08 724.56,-83.26 725.28,-93.83 731.71,-91.08"/>
<polygon fill="black" stroke="black" points="724.36,-183.23 725.3,-193.78 731.15,-184.95 724.36,-183.23"/>
</g>
<!-- genfonction -->
<g id="node5" class="node">
<title>genfonction</title>
<polygon fill="none" stroke="green" points="466.5,-230 271.5,-230 271.5,-194 466.5,-194 466.5,-230"/>
<text text-anchor="middle" x="369" y="-208.3" font-family="Ubuntu" font-size="14.00">Généralités sur les fonctions</text>
</g>
<!-- signe -->
<g id="node6" class="node">
<title>signe</title>
<polygon fill="none" stroke="orange" points="330,-157 182,-157 182,-119 330,-119 330,-157"/>
<text text-anchor="middle" x="256" y="-141.8" font-family="Ubuntu" font-size="14.00">Signe d&#39;une fonction</text>
<text text-anchor="middle" x="256" y="-126.8" font-family="Ubuntu" font-size="14.00"> tableaux de signe</text>
</g>
<!-- genfonction&#45;&gt;signe -->
<g id="edge5" class="edge">
<title>genfonction&#45;&gt;signe</title>
<path fill="none" stroke="black" d="M342.22,-193.94C327.57,-184.6 309.2,-172.9 293.18,-162.69"/>
<polygon fill="black" stroke="black" points="294.88,-159.62 284.56,-157.2 291.12,-165.52 294.88,-159.62"/>
</g>
<!-- variation -->
<g id="node7" class="node">
<title>variation</title>
<polygon fill="none" stroke="red" points="617.5,-156 348.5,-156 348.5,-120 617.5,-120 617.5,-156"/>
<text text-anchor="middle" x="483" y="-134.3" font-family="Ubuntu" font-size="14.00">Variations et extremums d&#39;une fonction</text>
</g>
<!-- genfonction&#45;&gt;variation -->
<g id="edge6" class="edge">
<title>genfonction&#45;&gt;variation</title>
<path fill="none" stroke="black" d="M396.02,-193.94C411.24,-184.32 430.45,-172.19 446.94,-161.77"/>
<polygon fill="black" stroke="black" points="449.2,-164.49 455.78,-156.19 445.46,-158.57 449.2,-164.49"/>
</g>
<!-- repGraph -->
<g id="node8" class="node">
<title>repGraph</title>
<polygon fill="none" stroke="green" points="505,-314 233,-314 233,-278 505,-278 505,-314"/>
<text text-anchor="middle" x="369" y="-292.3" font-family="Ubuntu" font-size="14.00">Représentation graphique des fonctions</text>
</g>
<!-- repGraph&#45;&gt;genfonction -->
<g id="edge7" class="edge">
<title>repGraph&#45;&gt;genfonction</title>
<path fill="none" stroke="black" d="M369,-267.36C369,-258.58 369,-248.89 369,-240.15"/>
<polygon fill="black" stroke="black" points="365.5,-267.61 369,-277.61 372.5,-267.61 365.5,-267.61"/>
<polygon fill="black" stroke="black" points="372.5,-240.08 369,-230.08 365.5,-240.08 372.5,-240.08"/>
</g>
<!-- repGraph&#45;&gt;signe -->
<g id="edge8" class="edge">
<title>repGraph&#45;&gt;signe</title>
<path fill="none" stroke="black" d="M271.82,-272C268.2,-269.05 264.89,-265.73 262,-262 241.17,-235.17 243.88,-194.25 248.94,-167.08"/>
<polygon fill="black" stroke="black" points="270,-275 280.19,-277.89 274.03,-269.27 270,-275"/>
<polygon fill="black" stroke="black" points="252.42,-167.55 251.03,-157.05 245.57,-166.12 252.42,-167.55"/>
</g>
<!-- repGraph&#45;&gt;variation -->
<g id="edge9" class="edge">
<title>repGraph&#45;&gt;variation</title>
<path fill="none" stroke="black" d="M465.2,-271.87C468.81,-268.95 472.1,-265.68 475,-262 496.27,-234.99 493.99,-193.43 489.35,-166.23"/>
<polygon fill="black" stroke="black" points="463.06,-269.1 456.88,-277.71 467.08,-274.83 463.06,-269.1"/>
<polygon fill="black" stroke="black" points="492.75,-165.38 487.42,-156.22 485.87,-166.7 492.75,-165.38"/>
</g>
<!-- vecteur -->
<g id="node9" class="node">
<title>vecteur</title>
<polygon fill="none" stroke="green" points="1029,-420 883,-420 883,-384 1029,-384 1029,-420"/>
<text text-anchor="middle" x="956" y="-398.3" font-family="Ubuntu" font-size="14.00">Vecteurs sans repère</text>
</g>
<!-- vecteurB -->
<g id="node10" class="node">
<title>vecteurB</title>
<polygon fill="none" stroke="red" points="1040,-314 872,-314 872,-278 1040,-278 1040,-314"/>
<text text-anchor="middle" x="956" y="-292.3" font-family="Ubuntu" font-size="14.00">Vecteurs dans un repère</text>
</g>
<!-- vecteur&#45;&gt;vecteurB -->
<g id="edge10" class="edge">
<title>vecteur&#45;&gt;vecteurB</title>
<path fill="none" stroke="black" d="M956,-383.83C956,-367.64 956,-343.13 956,-324.27"/>
<polygon fill="black" stroke="black" points="959.5,-324.2 956,-314.2 952.5,-324.2 959.5,-324.2"/>
</g>
<!-- droites -->
<g id="node11" class="node">
<title>droites</title>
<polygon fill="none" stroke="red" points="1037.5,-231 874.5,-231 874.5,-193 1037.5,-193 1037.5,-231"/>
<text text-anchor="middle" x="956" y="-215.8" font-family="Ubuntu" font-size="14.00">Équations cartésiennes</text>
<text text-anchor="middle" x="956" y="-200.8" font-family="Ubuntu" font-size="14.00">et réduites des droites</text>
</g>
<!-- vecteurB&#45;&gt;droites -->
<g id="edge12" class="edge">
<title>vecteurB&#45;&gt;droites</title>
<path fill="none" stroke="black" d="M956,-270C956,-268 956,-266 956,-264"/>
<polygon fill="black" stroke="black" points="959.5,-272 956,-262 952.5,-272 959.5,-272"/>
</g>
<!-- systeme -->
<g id="node12" class="node">
<title>systeme</title>
<polygon fill="none" stroke="red" points="1074,-156 838,-156 838,-120 1074,-120 1074,-156"/>
<text text-anchor="middle" x="956" y="-134.3" font-family="Ubuntu" font-size="14.00">Systèmes d&#39;équations cartésiennes</text>
</g>
<!-- droites&#45;&gt;systeme -->
<g id="edge11" class="edge">
<title>droites&#45;&gt;systeme</title>
<path fill="none" stroke="black" d="M956,-192.83C956,-184.89 956,-175.41 956,-166.63"/>
<polygon fill="black" stroke="black" points="959.5,-166.42 956,-156.42 952.5,-166.42 959.5,-166.42"/>
</g>
<!-- proportion -->
<g id="node13" class="node">
<title>proportion</title>
<polygon fill="none" stroke="green" points="1330.5,-420 1157.5,-420 1157.5,-384 1330.5,-384 1330.5,-420"/>
<text text-anchor="middle" x="1244" y="-398.3" font-family="Ubuntu" font-size="14.00">Proportion et évolutions</text>
</g>
<!-- stat -->
<g id="node14" class="node">
<title>stat</title>
<polygon fill="none" stroke="red" points="1278,-314 1106,-314 1106,-278 1278,-278 1278,-314"/>
<text text-anchor="middle" x="1192" y="-292.3" font-family="Ubuntu" font-size="14.00">Statistiques descriptives</text>
</g>
<!-- proportion&#45;&gt;stat -->
<g id="edge14" class="edge">
<title>proportion&#45;&gt;stat</title>
<path fill="none" stroke="black" d="M1235.41,-383.83C1227.17,-367.34 1214.61,-342.22 1205.11,-323.23"/>
<polygon fill="black" stroke="black" points="1208.2,-321.58 1200.6,-314.2 1201.94,-324.71 1208.2,-321.58"/>
</g>
<!-- proba -->
<g id="node15" class="node">
<title>proba</title>
<polygon fill="none" stroke="red" points="1382,-314 1296,-314 1296,-278 1382,-278 1382,-314"/>
<text text-anchor="middle" x="1339" y="-292.3" font-family="Ubuntu" font-size="14.00">Probabilité</text>
</g>
<!-- proportion&#45;&gt;proba -->
<g id="edge13" class="edge">
<title>proportion&#45;&gt;proba</title>
<path fill="none" stroke="black" d="M1277.07,-383.95C1280.6,-381.51 1283.99,-378.85 1287,-376 1303.05,-360.81 1316.6,-339.76 1325.84,-323.21"/>
<polygon fill="black" stroke="black" points="1329.11,-324.52 1330.77,-314.06 1322.94,-321.2 1329.11,-324.52"/>
</g>
<!-- echantillonnage -->
<g id="node16" class="node">
<title>echantillonnage</title>
<polygon fill="none" stroke="red" points="1317,-230 1197,-230 1197,-194 1317,-194 1317,-230"/>
<text text-anchor="middle" x="1257" y="-208.3" font-family="Ubuntu" font-size="14.00">Échantillonnage</text>
</g>
<!-- stat&#45;&gt;echantillonnage -->
<g id="edge15" class="edge">
<title>stat&#45;&gt;echantillonnage</title>
<path fill="none" stroke="black" d="M1205.78,-277.61C1214.89,-266.12 1226.98,-250.87 1237.12,-238.07"/>
<polygon fill="black" stroke="black" points="1239.99,-240.09 1243.46,-230.08 1234.5,-235.75 1239.99,-240.09"/>
</g>
<!-- proba&#45;&gt;echantillonnage -->
<g id="edge16" class="edge">
<title>proba&#45;&gt;echantillonnage</title>
<path fill="none" stroke="black" d="M1321.61,-277.61C1309.9,-265.9 1294.29,-250.29 1281.35,-237.35"/>
<polygon fill="black" stroke="black" points="1283.63,-234.68 1274.08,-230.08 1278.68,-239.63 1283.63,-234.68"/>
</g>
<!-- diviseur -->
<g id="node17" class="node">
<title>diviseur</title>
<polygon fill="none" stroke="red" points="149.5,-420 16.5,-420 16.5,-384 149.5,-384 149.5,-420"/>
<text text-anchor="middle" x="83" y="-398.3" font-family="Ubuntu" font-size="14.00">Diviseur, multiples</text>
</g>
<!-- diviseur&#45;&gt;ensembleDeNombres -->
<g id="edge18" class="edge">
<title>diviseur&#45;&gt;ensembleDeNombres</title>
<path fill="none" stroke="black" d="M149.59,-400.42C285.68,-398.88 586.55,-393.51 630,-376 658.18,-364.65 683.51,-340.51 700.07,-321.89"/>
<polygon fill="black" stroke="black" points="702.73,-324.16 706.61,-314.3 697.43,-319.59 702.73,-324.16"/>
</g>
<!-- nbpremier -->
<g id="node18" class="node">
<title>nbpremier</title>
<polygon fill="none" stroke="red" points="149.5,-314 16.5,-314 16.5,-278 149.5,-278 149.5,-314"/>
<text text-anchor="middle" x="83" y="-292.3" font-family="Ubuntu" font-size="14.00">Nombres premiers</text>
</g>
<!-- diviseur&#45;&gt;nbpremier -->
<g id="edge17" class="edge">
<title>diviseur&#45;&gt;nbpremier</title>
<path fill="none" stroke="black" d="M83,-383.83C83,-367.64 83,-343.13 83,-324.27"/>
<polygon fill="black" stroke="black" points="86.5,-324.2 83,-314.2 79.5,-324.2 86.5,-324.2"/>
</g>
</g>
</svg>
