<?xml version="1.0" encoding="UTF-8" standalone="no"?>
<!DOCTYPE svg PUBLIC "-//W3C//DTD SVG 1.1//EN"
 "http://www.w3.org/Graphics/SVG/1.1/DTD/svg11.dtd">
<!-- Generated by graphviz version 2.43.0 (0)
 -->
<!-- Title: G Pages: 1 -->
<svg width="592pt" height="268pt"
 viewBox="0.00 0.00 592.00 268.00" xmlns="http://www.w3.org/2000/svg" xmlns:xlink="http://www.w3.org/1999/xlink">
<g id="graph0" class="graph" transform="scale(1 1) rotate(0) translate(4 264)">
<title>G</title>
<polygon fill="white" stroke="transparent" points="-4,4 -4,-264 588,-264 588,4 -4,4"/>
<!-- fr -->
<g id="node1" class="node">
<title>fr</title>
<path fill="lightgrey" stroke="black" d="M81,-117C81,-117 12,-117 12,-117 6,-117 0,-111 0,-105 0,-105 0,-93 0,-93 0,-87 6,-81 12,-81 12,-81 81,-81 81,-81 87,-81 93,-87 93,-93 93,-93 93,-105 93,-105 93,-111 87,-117 81,-117"/>
<text text-anchor="middle" x="46.5" y="-94.6" font-family="Times,serif" font-size="18.00">Fraction</text>
</g>
<!-- re -->
<g id="node5" class="node">
<title>re</title>
<path fill="lightgrey" stroke="black" d="M340,-198C340,-198 141,-198 141,-198 135,-198 129,-192 129,-186 129,-186 129,-174 129,-174 129,-168 135,-162 141,-162 141,-162 340,-162 340,-162 346,-162 352,-168 352,-174 352,-174 352,-186 352,-186 352,-192 346,-198 340,-198"/>
<text text-anchor="middle" x="240.5" y="-175.6" font-family="Times,serif" font-size="18.00">Résolution d&#39;équations</text>
</g>
<!-- fr&#45;&gt;re -->
<g id="edge3" class="edge">
<title>fr&#45;&gt;re</title>
<path fill="none" stroke="#c29c14" stroke-width="2" d="M70.15,-117.12C85.85,-128.87 107.7,-143.68 129,-153 133.63,-155.03 138.44,-156.92 143.35,-158.68"/>
<polygon fill="#c29c14" stroke="#c29c14" stroke-width="2" points="142.28,-162.01 152.88,-161.91 144.53,-155.38 142.28,-162.01"/>
</g>
<!-- sl -->
<g id="node6" class="node">
<title>sl</title>
<path fill="lightgrey" stroke="black" d="M320,-36C320,-36 161,-36 161,-36 155,-36 149,-30 149,-24 149,-24 149,-12 149,-12 149,-6 155,0 161,0 161,0 320,0 320,0 326,0 332,-6 332,-12 332,-12 332,-24 332,-24 332,-30 326,-36 320,-36"/>
<text text-anchor="middle" x="240.5" y="-13.6" font-family="Times,serif" font-size="18.00">Taux de variations</text>
</g>
<!-- fr&#45;&gt;sl -->
<g id="edge4" class="edge">
<title>fr&#45;&gt;sl</title>
<path fill="none" stroke="#c29c14" stroke-width="2" d="M70.15,-80.88C85.85,-69.13 107.7,-54.32 129,-45 133.63,-42.97 138.44,-41.08 143.35,-39.32"/>
<polygon fill="#c29c14" stroke="#c29c14" stroke-width="2" points="144.53,-42.62 152.88,-36.09 142.28,-35.99 144.53,-42.62"/>
</g>
<!-- ar -->
<g id="node7" class="node">
<title>ar</title>
<path fill="lightgrey" stroke="black" d="M297,-144C297,-144 184,-144 184,-144 178,-144 172,-138 172,-132 172,-132 172,-120 172,-120 172,-114 178,-108 184,-108 184,-108 297,-108 297,-108 303,-108 309,-114 309,-120 309,-120 309,-132 309,-132 309,-138 303,-144 297,-144"/>
<text text-anchor="middle" x="240.5" y="-121.6" font-family="Times,serif" font-size="18.00">Arithmétique</text>
</g>
<!-- fr&#45;&gt;ar -->
<g id="edge5" class="edge">
<title>fr&#45;&gt;ar</title>
<path fill="none" stroke="#c29c14" stroke-width="2" d="M93,-105.4C113.57,-108.29 138.47,-111.79 161.85,-115.08"/>
<polygon fill="#c29c14" stroke="#c29c14" stroke-width="2" points="161.38,-118.55 171.77,-116.47 162.35,-111.62 161.38,-118.55"/>
</g>
<!-- pc -->
<g id="node8" class="node">
<title>pc</title>
<path fill="lightgrey" stroke="black" d="M280.5,-90C280.5,-90 200.5,-90 200.5,-90 194.5,-90 188.5,-84 188.5,-78 188.5,-78 188.5,-66 188.5,-66 188.5,-60 194.5,-54 200.5,-54 200.5,-54 280.5,-54 280.5,-54 286.5,-54 292.5,-60 292.5,-66 292.5,-66 292.5,-78 292.5,-78 292.5,-84 286.5,-90 280.5,-90"/>
<text text-anchor="middle" x="240.5" y="-67.6" font-family="Times,serif" font-size="18.00">Évolution</text>
</g>
<!-- fr&#45;&gt;pc -->
<g id="edge6" class="edge">
<title>fr&#45;&gt;pc</title>
<path fill="none" stroke="#c29c14" stroke-width="2" d="M93,-92.6C118.48,-89.02 150.6,-84.5 178.26,-80.61"/>
<polygon fill="#c29c14" stroke="#c29c14" stroke-width="2" points="178.82,-84.07 188.23,-79.21 177.84,-77.14 178.82,-84.07"/>
</g>
<!-- c -->
<g id="node2" class="node">
<title>c</title>
<polygon fill="none" stroke="black" points="73.5,-256 19.5,-256 19.5,-220 73.5,-220 73.5,-256"/>
</g>
<!-- Pour cette année -->
<g id="node3" class="node">
<title>Pour cette année</title>
<polygon fill="none" stroke="black" points="325.5,-256 155.5,-256 155.5,-220 325.5,-220 325.5,-256"/>
<polygon fill="none" stroke="black" points="329.5,-260 151.5,-260 151.5,-216 329.5,-216 329.5,-260"/>
<text text-anchor="middle" x="240.5" y="-233.6" font-family="Times,serif" font-size="18.00">Pour cette année</text>
</g>
<!-- c&#45;&gt;Pour cette année -->
<g id="edge1" class="edge">
<title>c&#45;&gt;Pour cette année</title>
<path fill="none" stroke="black" stroke-width="2" d="M73.79,-238C91.58,-238 116.28,-238 141.2,-238"/>
<polygon fill="black" stroke="black" stroke-width="2" points="141.49,-241.5 151.49,-238 141.49,-234.5 141.49,-241.5"/>
</g>
<!-- Pour plus tard -->
<g id="node4" class="node">
<title>Pour plus tard</title>
<polygon fill="none" stroke="black" points="558.5,-256 413.5,-256 413.5,-220 558.5,-220 558.5,-256"/>
<polygon fill="none" stroke="black" points="562.5,-260 409.5,-260 409.5,-216 562.5,-216 562.5,-260"/>
<text text-anchor="middle" x="486" y="-233.6" font-family="Times,serif" font-size="18.00">Pour plus tard</text>
</g>
<!-- Pour cette année&#45;&gt;Pour plus tard -->
<g id="edge2" class="edge">
<title>Pour cette année&#45;&gt;Pour plus tard</title>
<path fill="none" stroke="black" stroke-width="2" d="M329.75,-238C352.41,-238 376.76,-238 399.29,-238"/>
<polygon fill="black" stroke="black" stroke-width="2" points="399.5,-241.5 409.5,-238 399.5,-234.5 399.5,-241.5"/>
</g>
<!-- sl&#45;&gt;pc -->
<g id="edge8" class="edge">
<title>sl&#45;&gt;pc</title>
<path fill="none" stroke="#c29c14" stroke-width="2" d="M179.26,-36.14C169.36,-42.08 169.41,-48.01 179.42,-53.95"/>
<polygon fill="#c29c14" stroke="#c29c14" stroke-width="2" points="177.93,-57.12 188.46,-58.27 180.95,-50.8 177.93,-57.12"/>
</g>
<!-- Étude des fonctions -->
<g id="node9" class="node">
<title>Étude des fonctions</title>
<path fill="lightgrey" stroke="black" d="M572,-36C572,-36 400,-36 400,-36 394,-36 388,-30 388,-24 388,-24 388,-12 388,-12 388,-6 394,0 400,0 400,0 572,0 572,0 578,0 584,-6 584,-12 584,-12 584,-24 584,-24 584,-30 578,-36 572,-36"/>
<text text-anchor="middle" x="486" y="-13.6" font-family="Times,serif" font-size="18.00">Étude des fonctions</text>
</g>
<!-- sl&#45;&gt;Étude des fonctions -->
<g id="edge9" class="edge">
<title>sl&#45;&gt;Étude des fonctions</title>
<path fill="none" stroke="#c29c14" stroke-width="2" d="M332.17,-18C346.89,-18 362.26,-18 377.34,-18"/>
<polygon fill="#c29c14" stroke="#c29c14" stroke-width="2" points="377.72,-21.5 387.72,-18 377.72,-14.5 377.72,-21.5"/>
</g>
<!-- Fractions continues -->
<g id="node10" class="node">
<title>Fractions continues</title>
<path fill="lightgrey" stroke="black" d="M571.5,-144C571.5,-144 400.5,-144 400.5,-144 394.5,-144 388.5,-138 388.5,-132 388.5,-132 388.5,-120 388.5,-120 388.5,-114 394.5,-108 400.5,-108 400.5,-108 571.5,-108 571.5,-108 577.5,-108 583.5,-114 583.5,-120 583.5,-120 583.5,-132 583.5,-132 583.5,-138 577.5,-144 571.5,-144"/>
<text text-anchor="middle" x="486" y="-121.6" font-family="Times,serif" font-size="18.00">Fractions continues</text>
</g>
<!-- ar&#45;&gt;Fractions continues -->
<g id="edge10" class="edge">
<title>ar&#45;&gt;Fractions continues</title>
<path fill="none" stroke="#c29c14" stroke-width="2" d="M309,-126C330.43,-126 354.68,-126 378.17,-126"/>
<polygon fill="#c29c14" stroke="#c29c14" stroke-width="2" points="378.19,-129.5 388.19,-126 378.19,-122.5 378.19,-129.5"/>
</g>
<!-- pc&#45;&gt;sl -->
<g id="edge7" class="edge">
<title>pc&#45;&gt;sl</title>
<path fill="none" stroke="#c29c14" stroke-width="2" d="M292.54,-58.27C304.93,-53.32 310.38,-48.36 308.88,-43.4"/>
<polygon fill="#c29c14" stroke="#c29c14" stroke-width="2" points="311.25,-40.81 301.74,-36.14 306.26,-45.72 311.25,-40.81"/>
</g>
</g>
</svg>
